<svg version="1.1" xmlns="http://www.w3.org/2000/svg"
  viewBox="-267.2639991760254 -3605.504141235351 5174.2720703125 4129.7921539306635">
  <desc>Created with Snap</desc>
  <defs></defs>
  <g>
    <g transform="matrix(33.806,0,0,33.806,629.5705,-3878.0776)">
      <polygon fill="none" stroke="#0162ff" stroke-width="4" stroke-linecap="round"
        stroke-linejoin="round" stroke-miterlimit="10"
        points="  50.75,25.659 9.085,74.342 5,74.68 5,82.85 33.245,82.85 33.245,75.701 50.75,56.98 66.747,75.701 66.747,82.85 95,82.85 95,74.68   90.915,74.342 "
        style=""></polygon>
      <path fill="none" stroke="#0162ff" stroke-width="4" stroke-linecap="round"
        stroke-linejoin="round" stroke-miterlimit="10" d="  M70.354,49.424" style=""></path>
      <polyline fill="none" stroke="#0162ff" stroke-width="4" stroke-linecap="round"
        stroke-linejoin="round" stroke-miterlimit="10"
        points="  70.354,49.424 70.354,25.659 67.091,25.659 67.091,17.15 90.915,17.15 90.915,25.659 87.516,25.659 87.484,70.181 "
        style=""></polyline>
      <desc>Created with Snap</desc>
      <defs></defs>
    </g>
    <g>
      <g transform="matrix(1.024,0,0,-1.024,0,0)">
        <path
          d="M39 671L39 700L293 700L293 671Q275 663 256 656Q237 650 217 646L217 86Q217 16 201 -29Q185 -74 161 -102Q138 -129 111 -142Q85 -155 63 -160L52 -145Q67 -132 79 -116Q92 -99 101 -74Q111 -49 116 -13Q121 23 121 75L121 646Q99 651 78 657Q57 663 39 671ZM382 250Q382 313 398 361Q415 410 446 443Q477 477 520 494Q564 512 617 512Q679 512 724 493Q769 474 797 439Q826 405 839 357Q853 309 853 250Q853 124 789 56Q725 -12 617 -12Q557 -12 513 6Q469 25 440 59Q411 94 396 142Q382 191 382 250ZM478 250Q478 205 486 165Q495 125 513 95Q532 66 562 49Q592 32 634 32Q688 32 722 85Q757 138 757 250Q757 296 748 335Q740 375 722 404Q704 434 676 451Q648 468 609 468Q550 468 514 415Q478 362 478 250ZM971 29L971 682L895 690L895 716Q926 729 964 737Q1003 745 1036 752L1061 752L1061 401L1063 401Q1080 452 1120 482Q1161 512 1210 512Q1301 512 1349 450Q1398 388 1398 259Q1398 127 1331 59Q1265 -9 1140 -9Q1115 -9 1090 -6Q1065 -2 1042 3Q1019 8 1000 15Q982 22 971 29ZM1183 450Q1135 450 1105 417Q1075 385 1061 335L1061 56Q1079 46 1105 40Q1131 35 1160 35Q1226 35 1264 92Q1302 150 1302 259Q1302 298 1295 333Q1289 368 1274 394Q1260 420 1237 435Q1215 450 1183 450ZM1468 700L1942 700Q1941 660 1938 619Q1936 579 1931 538L1905 538L1864 648L1646 648L1646 383L1809 383L1848 457L1873 457Q1879 358 1873 255L1848 255L1809 331L1646 331L1646 52L1876 52L1925 172L1950 172Q1957 130 1960 87Q1963 44 1961 0L1468 0L1468 29Q1503 45 1550 53L1550 646Q1530 650 1509 656Q1488 663 1468 671L1468 700ZM2598 25L2598 0L2383 0L2383 25Q2410 39 2442 49L2442 286Q2442 362 2420 406Q2398 450 2340 450Q2315 450 2293 441Q2272 432 2255 416Q2239 401 2227 381Q2215 362 2208 341L2208 49Q2239 43 2268 25L2268 0L2052 0L2052 25Q2077 38 2118 49L2118 442L2052 450L2052 476Q2078 487 2112 496Q2146 505 2183 512L2208 512L2208 400L2209 400Q2230 446 2269 479Q2309 512 2365 512Q2405 512 2436 502Q2468 493 2489 469Q2510 445 2521 404Q2532 364 2532 302L2532 49Q2572 42 2598 25ZM2862 512Q2916 512 2953 501Q2990 491 3015 469Q3074 509 3138 527Q3146 516 3149 500Q3153 484 3153 470L3140 446L3035 446Q3060 410 3060 351Q3060 279 3009 234Q2959 189 2862 189Q2843 189 2831 190Q2819 191 2804 193Q2799 184 2792 173Q2786 162 2786 150Q2786 130 2809 118Q2832 107 2866 98Q2901 89 2941 79Q2982 70 3017 53Q3052 37 3075 10Q3099 -16 3100 -58Q3101 -94 3083 -123Q3066 -152 3035 -172Q3004 -191 2960 -202Q2917 -212 2865 -212Q2756 -212 2700 -175Q2645 -138 2645 -82Q2645 -55 2653 -35Q2662 -15 2678 0Q2694 15 2718 26Q2742 38 2773 48Q2751 58 2736 75Q2722 93 2722 118Q2722 141 2741 163Q2761 186 2781 199Q2724 214 2693 256Q2663 298 2663 351Q2663 385 2676 414Q2689 444 2714 466Q2739 488 2776 500Q2813 512 2862 512ZM3010 -81Q3010 -49 2988 -30Q2967 -11 2935 1Q2903 13 2866 21Q2829 29 2797 39Q2759 16 2747 -10Q2735 -35 2735 -62Q2735 -115 2773 -142Q2811 -168 2883 -168Q2920 -168 2944 -161Q2969 -154 2983 -143Q2998 -131 3004 -115Q3010 -99 3010 -81ZM2753 351Q2753 327 2758 305Q2764 284 2776 268Q2789 252 2810 242Q2831 233 2862 233Q2920 233 2945 267Q2970 301 2970 351Q2970 405 2945 436Q2921 468 2862 468Q2801 468 2777 437Q2753 407 2753 351ZM3404 25L3404 0L3182 0L3182 25Q3197 33 3213 38Q3229 44 3248 49L3248 442L3182 450L3182 476Q3211 488 3245 497Q3279 506 3313 512L3338 512L3338 49Q3358 44 3374 38Q3390 33 3404 25ZM3229 670Q3229 697 3246 713Q3264 729 3293 729Q3322 729 3339 713Q3356 697 3356 670Q3356 643 3339 627Q3322 612 3293 612Q3264 612 3246 627Q3229 643 3229 670ZM4019 25L4019 0L3804 0L3804 25Q3831 39 3863 49L3863 286Q3863 362 3841 406Q3819 450 3761 450Q3736 450 3714 441Q3693 432 3676 416Q3660 401 3648 381Q3636 362 3629 341L3629 49Q3660 43 3689 25L3689 0L3473 0L3473 25Q3498 38 3539 49L3539 442L3473 450L3473 476Q3499 487 3533 496Q3567 505 3604 512L3629 512L3629 400L3630 400Q3651 446 3690 479Q3730 512 3786 512Q3826 512 3857 502Q3889 493 3910 469Q3931 445 3942 404Q3953 364 3953 302L3953 49Q3993 42 4019 25ZM4468 86L4482 70Q4474 53 4457 38Q4440 23 4418 12Q4396 1 4370 -6Q4344 -12 4317 -12Q4258 -12 4213 6Q4168 25 4138 59Q4108 94 4092 142Q4077 190 4077 250Q4077 378 4136 445Q4195 512 4303 512Q4338 512 4372 502Q4406 493 4432 471Q4459 449 4475 412Q4492 376 4492 322Q4492 305 4490 287Q4489 270 4485 250L4173 250Q4173 208 4183 171Q4194 135 4215 108Q4236 81 4268 65Q4300 50 4343 50Q4378 50 4414 60Q4450 70 4468 86ZM4299 468Q4242 468 4212 429Q4182 391 4176 294L4396 294Q4397 303 4397 311Q4398 320 4398 328Q4398 392 4374 430Q4350 468 4299 468Z"
          fill="#0162ff" style=""></path>
      </g>
    </g>
  </g>
</svg>
